<svg width="1200" height="800" viewBox="0 0 1200 800" fill="none" xmlns="http://www.w3.org/2000/svg">
  <rect width="1200" height="800" fill="#EAEFF7"/>
  <rect width="1200" height="56" fill="#F7F9FC"/>
  <rect x="0" y="56" width="220" height="744" fill="#0F2F38"/>
  <rect x="220" y="56" width="980" height="744" fill="#F1F3F8"/>

  <g transform="translate(30,82)">
    <rect x="0" y="0" width="150" height="30" rx="15" fill="#173F4A"/>
    <circle cx="18" cy="15" r="12" fill="#20B2A4"/>
    <path d="M14 14L18 10L23 14L18 19L14 14Z" fill="#EAF7F7"/>
    <text x="38" y="21" fill="#F5F5F5" font-family="Arial, Helvetica, sans-serif" font-size="12" font-weight="700">Dr Basu Eye Care</text>
  </g>

  <g transform="translate(20,180)" fill="#D8E1E7" font-family="Arial, Helvetica, sans-serif" font-size="15" font-weight="600">
    <text x="0" y="0">Front Office</text>
    <text x="0" y="50">Doctor</text>
    <text x="0" y="100">Pharmacy</text>
    <text x="0" y="150">Leads Management</text>
    <text x="0" y="200">Notification Center</text>
    <text x="0" y="250">Download Center</text>
    <text x="0" y="300">Reports</text>
    <text x="0" y="350">Setup</text>
  </g>

  <g transform="translate(260,72)">
    <rect x="0" y="0" width="180" height="36" rx="12" fill="#EAF0F6"/>
    <text x="30" y="24" fill="#1E2B39" font-family="Arial, Helvetica, sans-serif" font-size="14" font-weight="700">Appointment Details</text>

    <rect x="220" y="0" width="120" height="36" rx="12" fill="#EAF0F6"/>
    <text x="255" y="24" fill="#1E2B39" font-family="Arial, Helvetica, sans-serif" font-size="14" font-weight="700">OCT</text>

    <rect x="360" y="0" width="120" height="36" rx="12" fill="#EAF0F6"/>
    <text x="400" y="24" fill="#1E2B39" font-family="Arial, Helvetica, sans-serif" font-size="14" font-weight="700">VF</text>

    <rect x="500" y="0" width="130" height="36" rx="12" fill="#EAF0F6"/>
    <text x="540" y="24" fill="#1E2B39" font-family="Arial, Helvetica, sans-serif" font-size="14" font-weight="700">Panchakarma</text>

    <rect x="660" y="0" width="120" height="36" rx="12" fill="#EAF0F6"/>
    <text x="690" y="24" fill="#1E2B39" font-family="Arial, Helvetica, sans-serif" font-size="14" font-weight="700">Overview</text>

    <rect x="800" y="0" width="140" height="36" rx="12" fill="#EAF0F6"/>
    <text x="835" y="24" fill="#1E2B39" font-family="Arial, Helvetica, sans-serif" font-size="14" font-weight="700">Refund History</text>
  </g>

  <g transform="translate(260,130)">
    <rect x="0" y="0" width="920" height="74" rx="14" fill="#FFFFFF"/>
    <rect x="18" y="17" width="178" height="40" rx="10" fill="#1AA195"/>
    <text x="107" y="42" text-anchor="middle" fill="white" font-family="Arial, Helvetica, sans-serif" font-size="15" font-weight="700">+ Add Appointment</text>

    <rect x="230" y="18" width="270" height="38" rx="10" fill="#F5F7FA"/>
    <text x="270" y="43" fill="#7A8291" font-family="Arial, Helvetica, sans-serif" font-size="14" font-weight="500">Search patient by mobile number</text>

    <rect x="520" y="18" width="150" height="38" rx="10" fill="#1AA195"/>
    <text x="595" y="43" text-anchor="middle" fill="white" font-family="Arial, Helvetica, sans-serif" font-size="15" font-weight="700">Apply</text>

    <rect x="686" y="18" width="120" height="38" rx="10" fill="#F4F6F8"/>
    <text x="746" y="43" text-anchor="middle" fill="#495467" font-family="Arial, Helvetica, sans-serif" font-size="15" font-weight="600">Clear</text>
  </g>

  <g transform="translate(260,235)">
    <rect x="0" y="0" width="860" height="92" rx="12" fill="#FFFFFF"/>
    <g fill="#556070" font-family="Arial, Helvetica, sans-serif" font-size="12" font-weight="700">
      <text x="32" y="25">Total Appointments</text>
      <text x="210" y="25">Follow-up Appointments</text>
      <text x="420" y="25">Fresh Appointments</text>
      <text x="608" y="25">OCT Completed</text>
      <text x="760" y="25">VFI Completed</text>
    </g>
    <g fill="#0A1D2B" font-family="Arial, Helvetica, sans-serif" font-size="28" font-weight="700">
      <text x="52" y="62">13</text>
      <text x="255" y="62">0</text>
      <text x="470" y="62">0</text>
      <text x="650" y="62">18</text>
      <text x="804" y="62">14</text>
    </g>
  </g>

  <g transform="translate(260,355)">
    <rect x="0" y="0" width="920" height="360" rx="14" fill="#FFFFFF"/>
    <text x="18" y="30" fill="#2B374A" font-family="Arial, Helvetica, sans-serif" font-size="13" font-weight="700">Patient Name (First &amp; Last)</text>
    <text x="205" y="30" fill="#2B374A" font-family="Arial, Helvetica, sans-serif" font-size="13" font-weight="700">Date</text>
    <text x="315" y="30" fill="#2B374A" font-family="Arial, Helvetica, sans-serif" font-size="13" font-weight="700">Phone</text>
    <text x="440" y="30" fill="#2B374A" font-family="Arial, Helvetica, sans-serif" font-size="13" font-weight="700">Branch</text>
    <text x="540" y="30" fill="#2B374A" font-family="Arial, Helvetica, sans-serif" font-size="13" font-weight="700">Doctor</text>
    <text x="640" y="30" fill="#2B374A" font-family="Arial, Helvetica, sans-serif" font-size="13" font-weight="700">Agent</text>
    <text x="740" y="30" fill="#2B374A" font-family="Arial, Helvetica, sans-serif" font-size="13" font-weight="700">Status</text>

    <g fill="#404E60" font-family="Arial, Helvetica, sans-serif" font-size="12" font-weight="500">
      <text x="18" y="72">Shriram Jaiswal</text>
      <text x="205" y="72">2020-...</text>
      <text x="315" y="72">915648...</text>
      <text x="440" y="72">Delhi</text>
      <text x="540" y="72">Dr. ...</text>
      <text x="640" y="72">Abhishek</text>
      <text x="740" y="72">OP</text>
      <text x="820" y="72">In Queue</text>
    </g>

    <g fill="#404E60" font-family="Arial, Helvetica, sans-serif" font-size="12" font-weight="500">
      <text x="18" y="118">Mone Sinha</text>
      <text x="205" y="118">2020-...</text>
      <text x="315" y="118">800...</text>
      <text x="440" y="118">Delhi</text>
      <text x="540" y="118">Dr. ...</text>
      <text x="640" y="118">Abhishek</text>
      <text x="740" y="118">OP</text>
      <text x="820" y="118">In Queue</text>
    </g>

    <g fill="#404E60" font-family="Arial, Helvetica, sans-serif" font-size="12" font-weight="500">
      <text x="18" y="164">Avi K Pandey</text>
      <text x="205" y="164">2020-...</text>
      <text x="315" y="164">9380...</text>
      <text x="440" y="164">Delhi</text>
      <text x="540" y="164">Dr. ...</text>
      <text x="640" y="164">Amit</text>
      <text x="740" y="164">OP</text>
      <text x="820" y="164">In Queue</text>
    </g>
  </g>
</svg>